<svg width="800" height="400" xmlns="http://www.w3.org/2000/svg">
    <!-- Background -->
    <rect width="100%" height="100%" fill="#f8f9fa" rx="10" ry="10"/>
    
    <!-- Title -->
    <text x="400" y="30" font-family="Arial" font-size="24" text-anchor="middle" font-weight="bold">CPython Execution Workflow</text>
    
    <!-- Python Source File -->
    <rect x="50" y="80" width="120" height="160" fill="#dbeafe" stroke="#2563eb" stroke-width="2" rx="5" ry="5"/>
    <rect x="60" y="90" width="100" height="140" fill="white" stroke="#2563eb" stroke-width="1" rx="2" ry="2"/>
    <text x="110" y="110" font-family="monospace" font-size="12" text-anchor="middle">foo.py</text>
    <text x="110" y="130" font-family="monospace" font-size="10" text-anchor="middle">def hello():</text>
    <text x="110" y="145" font-family="monospace" font-size="10" text-anchor="middle">    print(</text>
    <text x="110" y="160" font-family="monospace" font-size="10" text-anchor="middle">        "Hello")</text>
    <text x="110" y="175" font-family="monospace" font-size="10" text-anchor="middle"></text>
    <text x="110" y="190" font-family="monospace" font-size="10" text-anchor="middle">hello()</text>
    
    <!-- Main Pipeline Box -->
    <rect x="230" y="60" width="460" height="200" fill="#e2e8f0" stroke="#64748b" stroke-width="2" rx="10" ry="10"/>
    <text x="460" y="80" font-family="Arial" font-size="16" text-anchor="middle" font-weight="bold">CPython Interpreter</text>
    
    <!-- Lexing Stage -->
    <rect x="250" y="100" width="100" height="60" fill="#bfdbfe" stroke="#3b82f6" stroke-width="2" rx="5" ry="5"/>
    <text x="300" y="135" font-family="Arial" font-size="14" text-anchor="middle" font-weight="bold">Lexing</text>
    <text x="300" y="155" font-family="Arial" font-size="10" text-anchor="middle">(Tokenization)</text>
    
    <!-- Parsing Stage -->
    <rect x="380" y="100" width="100" height="60" fill="#bfdbfe" stroke="#3b82f6" stroke-width="2" rx="5" ry="5"/>
    <text x="430" y="135" font-family="Arial" font-size="14" text-anchor="middle" font-weight="bold">Parsing</text>
    <text x="430" y="155" font-family="Arial" font-size="10" text-anchor="middle">(AST Creation)</text>
    
    <!-- Compiling Stage -->
    <rect x="510" y="100" width="100" height="60" fill="#bfdbfe" stroke="#3b82f6" stroke-width="2" rx="5" ry="5"/>
    <text x="560" y="135" font-family="Arial" font-size="14" text-anchor="middle" font-weight="bold">Compiling</text>
    <text x="560" y="155" font-family="Arial" font-size="10" text-anchor="middle">(Bytecode Gen)</text>
    
    <!-- Bytecode File -->
    <rect x="380" y="200" width="120" height="100" fill="#bbf7d0" stroke="#16a34a" stroke-width="2" rx="5" ry="5"/>
    <rect x="390" y="210" width="100" height="80" fill="white" stroke="#16a34a" stroke-width="1" rx="2" ry="2"/>
    <text x="440" y="230" font-family="monospace" font-size="12" text-anchor="middle">foo.pyc</text>
    <text x="440" y="250" font-family="monospace" font-size="10" text-anchor="middle">(Bytecode)</text>
    <text x="440" y="270" font-family="monospace" font-size="10" text-anchor="middle">0x02 0xA4 0x...</text>
    
    <!-- Python Virtual Machine -->
    <rect x="600" y="300" width="160" height="70" fill="#ddd6fe" stroke="#7c3aed" stroke-width="2" rx="5" ry="5"/>
    <text x="680" y="335" font-family="Arial" font-size="14" text-anchor="middle" font-weight="bold">Interpreting</text>
    <text x="680" y="355" font-family="Arial" font-size="12" text-anchor="middle">(Python Virtual Machine)</text>
    
    <!-- Arrows -->
    <defs>
        <marker id="arrowhead" markerWidth="10" markerHeight="7" refX="9" refY="3.5" orient="auto">
            <polygon points="0 0, 10 3.5, 0 7" fill="#475569"/>
        </marker>
    </defs>
    <!-- Source to Lexer -->
    <line x1="170" y1="160" x2="250" y2="130" stroke="#475569" stroke-width="2" marker-end="url(#arrowhead)"/>
    <!-- Lexer to Parser -->
    <line x1="350" y1="130" x2="380" y2="130" stroke="#475569" stroke-width="2" marker-end="url(#arrowhead)"/>
    <!-- Parser to Compiler -->
    <line x1="480" y1="130" x2="510" y2="130" stroke="#475569" stroke-width="2" marker-end="url(#arrowhead)"/>
    <!-- Compiler to Bytecode -->
    <line x1="560" y1="160" x2="500" y2="200" stroke="#475569" stroke-width="2" marker-end="url(#arrowhead)"/>
    <!-- Bytecode to VM -->
    <line x1="500" y1="250" x2="600" y2="330" stroke="#475569" stroke-width="2" marker-end="url(#arrowhead)"/>
    
    <!-- Output -->
    <rect x="650" y="190" width="100" height="50" fill="#fee2e2" stroke="#ef4444" stroke-width="2" rx="5" ry="5"/>
    <text x="700" y="220" font-family="Arial" font-size="14" text-anchor="middle" font-weight="bold">Hello</text>
    <line x1="680" y1="300" x2="700" y2="240" stroke="#475569" stroke-width="2" marker-end="url(#arrowhead)"/>
</svg>
